<?xml version="1.0" encoding="utf-8"?>
<!-- Generator: Adobe Illustrator 25.0.1, SVG Export Plug-In . SVG Version: 6.00 Build 0)  -->
<svg version="1.1" id="Layer_1" xmlns="http://www.w3.org/2000/svg" xmlns:xlink="http://www.w3.org/1999/xlink" x="0px" y="0px"
	 viewBox="0 0 60 60" style="enable-background:new 0 0 60 60;" xml:space="preserve">
<style type="text/css">
	.st0{fill:#CCFF66;}
</style>
<path class="st0" d="M57.5,21.5H54v-6.3c0-1.5-1.2-2.7-2.7-2.7H26.5l-5-7H2.7C1.2,5.5,0,6.7,0,8.2v43.7h0c0,0.6,0.2,1.1,0.5,1.6
	c0.5,0.6,1.2,1,2,1h44.8c1.2,0,2.2-0.8,2.5-1.8l10.2-28v-0.2C60,22.8,58.9,21.5,57.5,21.5z M2,8.2c0-0.4,0.3-0.7,0.7-0.7h17.8l5,7
	h25.8c0.4,0,0.7,0.3,0.7,0.7v6.3H12.7c-0.1,0-0.3,0-0.4,0c-1,0.2-1.8,0.9-2,1.8L2,45.9V8.2z M47.9,52.1c-0.1,0.2-0.3,0.4-0.5,0.4
	H2.6c-0.2,0-0.4-0.1-0.4-0.2C2.1,52.2,2,52,2,51.9l10.2-28c0.1-0.2,0.3-0.4,0.5-0.4H54h3.5c0.4,0,0.5,0.5,0.5,0.8L47.9,52.1z"/>
</svg>
